<mxfile host="app.diagrams.net" modified="2024-06-29T04:25:30.934Z" agent="Mozilla/5.0 (Windows NT 10.0; Win64; x64) AppleWebKit/537.36 (KHTML, like Gecko) Chrome/126.0.0.0 Safari/537.36" etag="UbKX0USUDtxrZZ8cLsAf" version="24.6.4" type="device">
  <diagram name="Page-1" id="Mi3Lm3dY8ZBw06NJDvWg">
    <mxGraphModel dx="1259" dy="1762" grid="1" gridSize="10" guides="1" tooltips="1" connect="1" arrows="1" fold="1" page="1" pageScale="1" pageWidth="850" pageHeight="1100" math="0" shadow="0">
      <root>
        <mxCell id="0" />
        <mxCell id="1" parent="0" />
        <mxCell id="ZaTgD6MMcQvt1EQLGWRR-1" value="" style="rounded=0;whiteSpace=wrap;html=1;" parent="1" vertex="1">
          <mxGeometry x="120" y="80" width="520" height="440" as="geometry" />
        </mxCell>
        <mxCell id="ZaTgD6MMcQvt1EQLGWRR-2" value="&lt;font style=&quot;font-size: 20px;&quot;&gt;&lt;b&gt;Login Page&lt;/b&gt;&lt;/font&gt;" style="text;html=1;align=center;verticalAlign=middle;resizable=0;points=[];autosize=1;strokeColor=none;fillColor=none;" parent="1" vertex="1">
          <mxGeometry x="315" y="30" width="130" height="40" as="geometry" />
        </mxCell>
        <mxCell id="ZaTgD6MMcQvt1EQLGWRR-19" value="" style="rounded=0;whiteSpace=wrap;html=1;" parent="1" vertex="1">
          <mxGeometry x="680" y="80" width="520" height="440" as="geometry" />
        </mxCell>
        <mxCell id="ZaTgD6MMcQvt1EQLGWRR-20" value="&lt;font style=&quot;font-size: 20px;&quot;&gt;&lt;b&gt;Side Panel On Explore Page&lt;/b&gt;&lt;/font&gt;" style="text;html=1;align=center;verticalAlign=middle;resizable=0;points=[];autosize=1;strokeColor=none;fillColor=none;" parent="1" vertex="1">
          <mxGeometry x="795" y="30" width="290" height="40" as="geometry" />
        </mxCell>
        <mxCell id="ZaTgD6MMcQvt1EQLGWRR-21" value="" style="rounded=1;whiteSpace=wrap;html=1;" parent="1" vertex="1">
          <mxGeometry x="840" y="140" width="200" height="300" as="geometry" />
        </mxCell>
        <mxCell id="ZaTgD6MMcQvt1EQLGWRR-22" value="" style="ellipse;whiteSpace=wrap;html=1;aspect=fixed;" parent="1" vertex="1">
          <mxGeometry x="840" y="450" width="40" height="40" as="geometry" />
        </mxCell>
        <mxCell id="ZaTgD6MMcQvt1EQLGWRR-23" value="" style="ellipse;whiteSpace=wrap;html=1;aspect=fixed;" parent="1" vertex="1">
          <mxGeometry x="1000" y="450" width="40" height="40" as="geometry" />
        </mxCell>
        <mxCell id="ZaTgD6MMcQvt1EQLGWRR-24" value="" style="verticalLabelPosition=bottom;verticalAlign=top;html=1;shape=mxgraph.basic.heart" parent="1" vertex="1">
          <mxGeometry x="1003.75" y="455" width="32.5" height="30" as="geometry" />
        </mxCell>
        <mxCell id="ZaTgD6MMcQvt1EQLGWRR-25" value="" style="verticalLabelPosition=bottom;verticalAlign=top;html=1;shape=mxgraph.basic.x" parent="1" vertex="1">
          <mxGeometry x="845" y="455" width="30" height="30" as="geometry" />
        </mxCell>
        <mxCell id="ZaTgD6MMcQvt1EQLGWRR-26" value="" style="shape=actor;whiteSpace=wrap;html=1;" parent="1" vertex="1">
          <mxGeometry x="860" y="170" width="160" height="270" as="geometry" />
        </mxCell>
        <mxCell id="ZaTgD6MMcQvt1EQLGWRR-27" value="&lt;font style=&quot;font-size: 16px;&quot;&gt;Log out&lt;/font&gt;" style="text;html=1;align=center;verticalAlign=middle;resizable=0;points=[];autosize=1;strokeColor=none;fillColor=none;" parent="1" vertex="1">
          <mxGeometry x="1120" y="80" width="80" height="30" as="geometry" />
        </mxCell>
        <mxCell id="ZaTgD6MMcQvt1EQLGWRR-28" value="" style="shape=partialRectangle;whiteSpace=wrap;html=1;top=0;bottom=0;fillColor=none;direction=south;strokeWidth=4;" parent="1" vertex="1">
          <mxGeometry x="690" y="100" width="40" height="10" as="geometry" />
        </mxCell>
        <mxCell id="ZaTgD6MMcQvt1EQLGWRR-29" value="" style="shape=partialRectangle;whiteSpace=wrap;html=1;top=0;bottom=0;fillColor=none;direction=south;strokeWidth=4;" parent="1" vertex="1">
          <mxGeometry x="690" y="90" width="40" height="20" as="geometry" />
        </mxCell>
        <mxCell id="ZaTgD6MMcQvt1EQLGWRR-31" value="" style="verticalLabelPosition=bottom;verticalAlign=top;html=1;shape=mxgraph.basic.rect;fillColor2=none;strokeWidth=1;size=20;indent=5;" parent="1" vertex="1">
          <mxGeometry x="680" y="80" width="150" height="440" as="geometry" />
        </mxCell>
        <mxCell id="ZaTgD6MMcQvt1EQLGWRR-34" value="&lt;font style=&quot;font-size: 22px;&quot;&gt;Profile&lt;/font&gt;" style="rounded=0;whiteSpace=wrap;html=1;" parent="1" vertex="1">
          <mxGeometry x="680" y="140" width="150" height="60" as="geometry" />
        </mxCell>
        <mxCell id="ZaTgD6MMcQvt1EQLGWRR-35" value="&lt;span style=&quot;font-size: 22px;&quot;&gt;Matches&lt;/span&gt;" style="rounded=0;whiteSpace=wrap;html=1;" parent="1" vertex="1">
          <mxGeometry x="680" y="200" width="150" height="60" as="geometry" />
        </mxCell>
        <mxCell id="ZaTgD6MMcQvt1EQLGWRR-36" value="&lt;font style=&quot;font-size: 22px;&quot;&gt;Messages&lt;/font&gt;" style="rounded=0;whiteSpace=wrap;html=1;" parent="1" vertex="1">
          <mxGeometry x="680" y="260" width="150" height="60" as="geometry" />
        </mxCell>
        <mxCell id="ZaTgD6MMcQvt1EQLGWRR-37" value="&lt;font style=&quot;font-size: 22px;&quot;&gt;Hi name&lt;/font&gt;" style="rounded=0;whiteSpace=wrap;html=1;" parent="1" vertex="1">
          <mxGeometry x="680" y="80" width="150" height="60" as="geometry" />
        </mxCell>
        <mxCell id="ZaTgD6MMcQvt1EQLGWRR-38" value="" style="rounded=0;whiteSpace=wrap;html=1;" parent="1" vertex="1">
          <mxGeometry x="120" y="600" width="520" height="440" as="geometry" />
        </mxCell>
        <mxCell id="ZaTgD6MMcQvt1EQLGWRR-39" value="&lt;font style=&quot;font-size: 20px;&quot;&gt;&lt;b&gt;Explore Page&lt;/b&gt;&lt;/font&gt;" style="text;html=1;align=center;verticalAlign=middle;resizable=0;points=[];autosize=1;strokeColor=none;fillColor=none;" parent="1" vertex="1">
          <mxGeometry x="305" y="550" width="150" height="40" as="geometry" />
        </mxCell>
        <mxCell id="ZaTgD6MMcQvt1EQLGWRR-41" value="" style="ellipse;whiteSpace=wrap;html=1;aspect=fixed;" parent="1" vertex="1">
          <mxGeometry x="280" y="970" width="40" height="40" as="geometry" />
        </mxCell>
        <mxCell id="ZaTgD6MMcQvt1EQLGWRR-42" value="" style="ellipse;whiteSpace=wrap;html=1;aspect=fixed;" parent="1" vertex="1">
          <mxGeometry x="440" y="970" width="40" height="40" as="geometry" />
        </mxCell>
        <mxCell id="ZaTgD6MMcQvt1EQLGWRR-43" value="" style="verticalLabelPosition=bottom;verticalAlign=top;html=1;shape=mxgraph.basic.heart" parent="1" vertex="1">
          <mxGeometry x="443.75" y="975" width="32.5" height="30" as="geometry" />
        </mxCell>
        <mxCell id="ZaTgD6MMcQvt1EQLGWRR-44" value="" style="verticalLabelPosition=bottom;verticalAlign=top;html=1;shape=mxgraph.basic.x" parent="1" vertex="1">
          <mxGeometry x="285" y="975" width="30" height="30" as="geometry" />
        </mxCell>
        <mxCell id="ZaTgD6MMcQvt1EQLGWRR-46" value="&lt;font style=&quot;font-size: 16px;&quot;&gt;Log out&lt;/font&gt;" style="text;html=1;align=center;verticalAlign=middle;resizable=0;points=[];autosize=1;strokeColor=none;fillColor=none;" parent="1" vertex="1">
          <mxGeometry x="560" y="600" width="80" height="30" as="geometry" />
        </mxCell>
        <mxCell id="ZaTgD6MMcQvt1EQLGWRR-47" value="" style="shape=partialRectangle;whiteSpace=wrap;html=1;top=0;bottom=0;fillColor=none;direction=south;strokeWidth=4;" parent="1" vertex="1">
          <mxGeometry x="130" y="620" width="40" height="10" as="geometry" />
        </mxCell>
        <mxCell id="ZaTgD6MMcQvt1EQLGWRR-48" value="" style="shape=partialRectangle;whiteSpace=wrap;html=1;top=0;bottom=0;fillColor=none;direction=south;strokeWidth=4;" parent="1" vertex="1">
          <mxGeometry x="130" y="610" width="40" height="20" as="geometry" />
        </mxCell>
        <mxCell id="ZaTgD6MMcQvt1EQLGWRR-50" value="&lt;font style=&quot;font-size: 20px;&quot;&gt;&lt;b&gt;Matches Page&lt;/b&gt;&lt;/font&gt;" style="text;html=1;align=center;verticalAlign=middle;resizable=0;points=[];autosize=1;strokeColor=none;fillColor=none;" parent="1" vertex="1">
          <mxGeometry x="860" y="550" width="160" height="40" as="geometry" />
        </mxCell>
        <mxCell id="ZaTgD6MMcQvt1EQLGWRR-49" value="" style="rounded=0;whiteSpace=wrap;html=1;" parent="1" vertex="1">
          <mxGeometry x="680" y="600" width="520" height="440" as="geometry" />
        </mxCell>
        <mxCell id="ZaTgD6MMcQvt1EQLGWRR-57" value="&lt;font style=&quot;font-size: 16px;&quot;&gt;Log out&lt;/font&gt;" style="text;html=1;align=center;verticalAlign=middle;resizable=0;points=[];autosize=1;strokeColor=none;fillColor=none;" parent="1" vertex="1">
          <mxGeometry x="1120" y="600" width="80" height="30" as="geometry" />
        </mxCell>
        <mxCell id="ZaTgD6MMcQvt1EQLGWRR-58" value="" style="shape=partialRectangle;whiteSpace=wrap;html=1;top=0;bottom=0;fillColor=none;direction=south;strokeWidth=4;" parent="1" vertex="1">
          <mxGeometry x="690" y="620" width="40" height="10" as="geometry" />
        </mxCell>
        <mxCell id="ZaTgD6MMcQvt1EQLGWRR-59" value="" style="shape=partialRectangle;whiteSpace=wrap;html=1;top=0;bottom=0;fillColor=none;direction=south;strokeWidth=4;" parent="1" vertex="1">
          <mxGeometry x="690" y="610" width="40" height="20" as="geometry" />
        </mxCell>
        <mxCell id="8h1q0feU8XcjB2wI1VCS-1" value="" style="rounded=1;whiteSpace=wrap;html=1;" parent="1" vertex="1">
          <mxGeometry x="252.5" y="140" width="255" height="290" as="geometry" />
        </mxCell>
        <mxCell id="8h1q0feU8XcjB2wI1VCS-2" value="&lt;font style=&quot;font-size: 21px;&quot;&gt;Sign in&lt;/font&gt;" style="text;html=1;align=center;verticalAlign=middle;resizable=0;points=[];autosize=1;strokeColor=none;fillColor=none;" parent="1" vertex="1">
          <mxGeometry x="285" y="160" width="90" height="40" as="geometry" />
        </mxCell>
        <mxCell id="8h1q0feU8XcjB2wI1VCS-5" value="Forgot Password?" style="text;html=1;align=center;verticalAlign=middle;resizable=0;points=[];autosize=1;strokeColor=none;fillColor=none;" parent="1" vertex="1">
          <mxGeometry x="280" y="250" width="120" height="30" as="geometry" />
        </mxCell>
        <mxCell id="8h1q0feU8XcjB2wI1VCS-8" value="Sign in" style="rounded=1;whiteSpace=wrap;html=1;" parent="1" vertex="1">
          <mxGeometry x="290" y="280" width="180" height="30" as="geometry" />
        </mxCell>
        <mxCell id="8h1q0feU8XcjB2wI1VCS-9" value="Password" style="rounded=1;whiteSpace=wrap;html=1;align=left;" parent="1" vertex="1">
          <mxGeometry x="290" y="230" width="180" height="20" as="geometry" />
        </mxCell>
        <mxCell id="8h1q0feU8XcjB2wI1VCS-10" value="Username" style="rounded=1;whiteSpace=wrap;html=1;align=left;" parent="1" vertex="1">
          <mxGeometry x="290" y="200" width="180" height="20" as="geometry" />
        </mxCell>
        <mxCell id="8h1q0feU8XcjB2wI1VCS-11" value="" style="endArrow=none;html=1;rounded=0;" parent="1" edge="1">
          <mxGeometry width="50" height="50" relative="1" as="geometry">
            <mxPoint x="290" y="330" as="sourcePoint" />
            <mxPoint x="470" y="330" as="targetPoint" />
          </mxGeometry>
        </mxCell>
        <mxCell id="8h1q0feU8XcjB2wI1VCS-14" value="Or" style="edgeLabel;html=1;align=center;verticalAlign=middle;resizable=0;points=[];" parent="8h1q0feU8XcjB2wI1VCS-11" vertex="1" connectable="0">
          <mxGeometry x="-0.0635" y="2" relative="1" as="geometry">
            <mxPoint as="offset" />
          </mxGeometry>
        </mxCell>
        <mxCell id="8h1q0feU8XcjB2wI1VCS-16" value="Sign in Google" style="rounded=1;whiteSpace=wrap;html=1;" parent="1" vertex="1">
          <mxGeometry x="290" y="350" width="180" height="30" as="geometry" />
        </mxCell>
        <mxCell id="8h1q0feU8XcjB2wI1VCS-17" value="&lt;font style=&quot;font-size: 18px;&quot;&gt;&lt;b&gt;Christian Crush&lt;/b&gt;&lt;/font&gt;" style="text;html=1;align=center;verticalAlign=middle;resizable=0;points=[];autosize=1;strokeColor=none;fillColor=none;" parent="1" vertex="1">
          <mxGeometry x="130" y="90" width="160" height="40" as="geometry" />
        </mxCell>
        <mxCell id="8h1q0feU8XcjB2wI1VCS-18" value="&lt;font style=&quot;font-size: 20px;&quot;&gt;&lt;b&gt;Matches&lt;/b&gt;&lt;/font&gt;" style="text;html=1;align=center;verticalAlign=middle;resizable=0;points=[];autosize=1;strokeColor=none;fillColor=none;" parent="1" vertex="1">
          <mxGeometry x="890" y="610" width="100" height="40" as="geometry" />
        </mxCell>
        <mxCell id="8h1q0feU8XcjB2wI1VCS-54" value="" style="rounded=0;whiteSpace=wrap;html=1;" parent="1" vertex="1">
          <mxGeometry x="750" y="650" width="385" height="370" as="geometry" />
        </mxCell>
        <mxCell id="8h1q0feU8XcjB2wI1VCS-20" value="" style="group" parent="1" vertex="1" connectable="0">
          <mxGeometry x="800" y="680" width="340" height="340" as="geometry" />
        </mxCell>
        <mxCell id="ZaTgD6MMcQvt1EQLGWRR-40" value="" style="rounded=1;whiteSpace=wrap;html=1;" parent="8h1q0feU8XcjB2wI1VCS-20" vertex="1">
          <mxGeometry width="130" height="140" as="geometry" />
        </mxCell>
        <mxCell id="ZaTgD6MMcQvt1EQLGWRR-45" value="" style="shape=actor;whiteSpace=wrap;html=1;" parent="8h1q0feU8XcjB2wI1VCS-20" vertex="1">
          <mxGeometry x="13" y="14" width="104" height="126" as="geometry" />
        </mxCell>
        <mxCell id="8h1q0feU8XcjB2wI1VCS-38" value="" style="group" parent="1" vertex="1" connectable="0">
          <mxGeometry x="960" y="680" width="130" height="140" as="geometry" />
        </mxCell>
        <mxCell id="8h1q0feU8XcjB2wI1VCS-39" value="" style="rounded=1;whiteSpace=wrap;html=1;" parent="8h1q0feU8XcjB2wI1VCS-38" vertex="1">
          <mxGeometry width="130" height="140" as="geometry" />
        </mxCell>
        <mxCell id="8h1q0feU8XcjB2wI1VCS-40" value="" style="shape=actor;whiteSpace=wrap;html=1;" parent="8h1q0feU8XcjB2wI1VCS-38" vertex="1">
          <mxGeometry x="13" y="14" width="104" height="126" as="geometry" />
        </mxCell>
        <mxCell id="8h1q0feU8XcjB2wI1VCS-41" value="" style="group" parent="1" vertex="1" connectable="0">
          <mxGeometry x="800" y="850" width="365" height="180" as="geometry" />
        </mxCell>
        <mxCell id="8h1q0feU8XcjB2wI1VCS-42" value="" style="rounded=1;whiteSpace=wrap;html=1;" parent="8h1q0feU8XcjB2wI1VCS-41" vertex="1">
          <mxGeometry width="130" height="140" as="geometry" />
        </mxCell>
        <mxCell id="8h1q0feU8XcjB2wI1VCS-43" value="" style="shape=actor;whiteSpace=wrap;html=1;" parent="8h1q0feU8XcjB2wI1VCS-41" vertex="1">
          <mxGeometry x="13" y="14" width="104" height="126" as="geometry" />
        </mxCell>
        <mxCell id="8h1q0feU8XcjB2wI1VCS-44" value="" style="group" parent="1" vertex="1" connectable="0">
          <mxGeometry x="960" y="850" width="130" height="140" as="geometry" />
        </mxCell>
        <mxCell id="8h1q0feU8XcjB2wI1VCS-45" value="" style="rounded=1;whiteSpace=wrap;html=1;" parent="8h1q0feU8XcjB2wI1VCS-44" vertex="1">
          <mxGeometry width="130" height="140" as="geometry" />
        </mxCell>
        <mxCell id="8h1q0feU8XcjB2wI1VCS-46" value="" style="shape=actor;whiteSpace=wrap;html=1;" parent="8h1q0feU8XcjB2wI1VCS-44" vertex="1">
          <mxGeometry x="13" y="14" width="104" height="126" as="geometry" />
        </mxCell>
        <mxCell id="8h1q0feU8XcjB2wI1VCS-47" value="Name" style="text;html=1;align=center;verticalAlign=middle;resizable=0;points=[];autosize=1;strokeColor=none;fillColor=none;" parent="1" vertex="1">
          <mxGeometry x="835" y="820" width="60" height="30" as="geometry" />
        </mxCell>
        <mxCell id="8h1q0feU8XcjB2wI1VCS-49" value="Name" style="text;html=1;align=center;verticalAlign=middle;resizable=0;points=[];autosize=1;strokeColor=none;fillColor=none;" parent="1" vertex="1">
          <mxGeometry x="995" y="990" width="60" height="30" as="geometry" />
        </mxCell>
        <mxCell id="8h1q0feU8XcjB2wI1VCS-48" value="Name" style="text;html=1;align=center;verticalAlign=middle;resizable=0;points=[];autosize=1;strokeColor=none;fillColor=none;" parent="1" vertex="1">
          <mxGeometry x="995" y="820" width="60" height="30" as="geometry" />
        </mxCell>
        <mxCell id="8h1q0feU8XcjB2wI1VCS-50" value="Name" style="text;html=1;align=center;verticalAlign=middle;resizable=0;points=[];autosize=1;strokeColor=none;fillColor=none;" parent="1" vertex="1">
          <mxGeometry x="835" y="990" width="60" height="30" as="geometry" />
        </mxCell>
        <mxCell id="8h1q0feU8XcjB2wI1VCS-55" value="" style="rounded=0;whiteSpace=wrap;html=1;" parent="1" vertex="1">
          <mxGeometry x="1120" y="650" width="15" height="370" as="geometry" />
        </mxCell>
        <mxCell id="8h1q0feU8XcjB2wI1VCS-58" value="" style="rounded=0;whiteSpace=wrap;html=1;fillColor=#000000;" parent="1" vertex="1">
          <mxGeometry x="1120" y="650" width="15" height="50" as="geometry" />
        </mxCell>
        <mxCell id="8h1q0feU8XcjB2wI1VCS-59" value="" style="group" parent="1" vertex="1" connectable="0">
          <mxGeometry x="260" y="660" width="240" height="300" as="geometry" />
        </mxCell>
        <mxCell id="8h1q0feU8XcjB2wI1VCS-60" value="" style="rounded=1;whiteSpace=wrap;html=1;" parent="8h1q0feU8XcjB2wI1VCS-59" vertex="1">
          <mxGeometry width="240" height="300" as="geometry" />
        </mxCell>
        <mxCell id="8h1q0feU8XcjB2wI1VCS-61" value="" style="shape=actor;whiteSpace=wrap;html=1;" parent="8h1q0feU8XcjB2wI1VCS-59" vertex="1">
          <mxGeometry x="24" y="30" width="192" height="270" as="geometry" />
        </mxCell>
        <mxCell id="7tBXSwUCON_xTU5TAgxx-2" value="&lt;font style=&quot;font-size: 20px;&quot;&gt;&lt;b&gt;Messages Page&lt;/b&gt;&lt;/font&gt;" style="text;html=1;align=center;verticalAlign=middle;resizable=0;points=[];autosize=1;strokeColor=none;fillColor=none;" vertex="1" parent="1">
          <mxGeometry x="295" y="1070" width="170" height="40" as="geometry" />
        </mxCell>
        <mxCell id="7tBXSwUCON_xTU5TAgxx-3" value="" style="rounded=0;whiteSpace=wrap;html=1;" vertex="1" parent="1">
          <mxGeometry x="120" y="1120" width="520" height="440" as="geometry" />
        </mxCell>
        <mxCell id="7tBXSwUCON_xTU5TAgxx-4" value="&lt;font style=&quot;font-size: 16px;&quot;&gt;Log out&lt;/font&gt;" style="text;html=1;align=center;verticalAlign=middle;resizable=0;points=[];autosize=1;strokeColor=none;fillColor=none;" vertex="1" parent="1">
          <mxGeometry x="560" y="1120" width="80" height="30" as="geometry" />
        </mxCell>
        <mxCell id="7tBXSwUCON_xTU5TAgxx-5" value="" style="shape=partialRectangle;whiteSpace=wrap;html=1;top=0;bottom=0;fillColor=none;direction=south;strokeWidth=4;" vertex="1" parent="1">
          <mxGeometry x="130" y="1140" width="40" height="10" as="geometry" />
        </mxCell>
        <mxCell id="7tBXSwUCON_xTU5TAgxx-6" value="" style="shape=partialRectangle;whiteSpace=wrap;html=1;top=0;bottom=0;fillColor=none;direction=south;strokeWidth=4;" vertex="1" parent="1">
          <mxGeometry x="130" y="1130" width="40" height="20" as="geometry" />
        </mxCell>
        <mxCell id="7tBXSwUCON_xTU5TAgxx-8" value="" style="rounded=0;whiteSpace=wrap;html=1;" vertex="1" parent="1">
          <mxGeometry x="190" y="1170" width="385" height="370" as="geometry" />
        </mxCell>
        <mxCell id="7tBXSwUCON_xTU5TAgxx-25" value="" style="rounded=0;whiteSpace=wrap;html=1;" vertex="1" parent="1">
          <mxGeometry x="560" y="1170" width="15" height="370" as="geometry" />
        </mxCell>
        <mxCell id="7tBXSwUCON_xTU5TAgxx-26" value="" style="rounded=0;whiteSpace=wrap;html=1;fillColor=#000000;" vertex="1" parent="1">
          <mxGeometry x="560" y="1170" width="15" height="50" as="geometry" />
        </mxCell>
        <mxCell id="7tBXSwUCON_xTU5TAgxx-34" value="" style="shape=card;whiteSpace=wrap;html=1;" vertex="1" parent="1">
          <mxGeometry x="205" y="1180" width="345" height="360" as="geometry" />
        </mxCell>
        <mxCell id="7tBXSwUCON_xTU5TAgxx-10" value="" style="rounded=1;whiteSpace=wrap;html=1;" vertex="1" parent="1">
          <mxGeometry x="340" y="1194" width="70" height="90" as="geometry" />
        </mxCell>
        <mxCell id="7tBXSwUCON_xTU5TAgxx-11" value="" style="shape=actor;whiteSpace=wrap;html=1;" vertex="1" parent="1">
          <mxGeometry x="351.5" y="1208" width="47" height="76" as="geometry" />
        </mxCell>
        <mxCell id="7tBXSwUCON_xTU5TAgxx-27" value="message 1" style="rounded=1;whiteSpace=wrap;html=1;" vertex="1" parent="1">
          <mxGeometry x="400" y="1350" width="140" height="30" as="geometry" />
        </mxCell>
        <mxCell id="7tBXSwUCON_xTU5TAgxx-28" value="&lt;font style=&quot;font-size: 14px;&quot;&gt;You and Name Matched&lt;/font&gt;" style="text;html=1;align=center;verticalAlign=middle;resizable=0;points=[];autosize=1;strokeColor=none;fillColor=none;" vertex="1" parent="1">
          <mxGeometry x="295" y="1290" width="170" height="30" as="geometry" />
        </mxCell>
        <mxCell id="7tBXSwUCON_xTU5TAgxx-29" value="message 3" style="rounded=1;whiteSpace=wrap;html=1;" vertex="1" parent="1">
          <mxGeometry x="220" y="1440" width="140" height="30" as="geometry" />
        </mxCell>
        <mxCell id="7tBXSwUCON_xTU5TAgxx-32" value="message 2" style="rounded=1;whiteSpace=wrap;html=1;" vertex="1" parent="1">
          <mxGeometry x="400" y="1390" width="140" height="30" as="geometry" />
        </mxCell>
        <mxCell id="7tBXSwUCON_xTU5TAgxx-33" value="message 3" style="rounded=1;whiteSpace=wrap;html=1;" vertex="1" parent="1">
          <mxGeometry x="400" y="1490" width="140" height="30" as="geometry" />
        </mxCell>
        <mxCell id="7tBXSwUCON_xTU5TAgxx-35" value="&lt;font style=&quot;font-size: 20px;&quot;&gt;&lt;b&gt;Profile Page&lt;/b&gt;&lt;/font&gt;" style="text;html=1;align=center;verticalAlign=middle;resizable=0;points=[];autosize=1;strokeColor=none;fillColor=none;" vertex="1" parent="1">
          <mxGeometry x="872.5" y="1070" width="140" height="40" as="geometry" />
        </mxCell>
        <mxCell id="7tBXSwUCON_xTU5TAgxx-36" value="" style="rounded=0;whiteSpace=wrap;html=1;" vertex="1" parent="1">
          <mxGeometry x="682.5" y="1120" width="520" height="440" as="geometry" />
        </mxCell>
        <mxCell id="7tBXSwUCON_xTU5TAgxx-37" value="&lt;font style=&quot;font-size: 16px;&quot;&gt;Log out&lt;/font&gt;" style="text;html=1;align=center;verticalAlign=middle;resizable=0;points=[];autosize=1;strokeColor=none;fillColor=none;" vertex="1" parent="1">
          <mxGeometry x="1122.5" y="1120" width="80" height="30" as="geometry" />
        </mxCell>
        <mxCell id="7tBXSwUCON_xTU5TAgxx-38" value="" style="shape=partialRectangle;whiteSpace=wrap;html=1;top=0;bottom=0;fillColor=none;direction=south;strokeWidth=4;" vertex="1" parent="1">
          <mxGeometry x="692.5" y="1140" width="40" height="10" as="geometry" />
        </mxCell>
        <mxCell id="7tBXSwUCON_xTU5TAgxx-39" value="" style="shape=partialRectangle;whiteSpace=wrap;html=1;top=0;bottom=0;fillColor=none;direction=south;strokeWidth=4;" vertex="1" parent="1">
          <mxGeometry x="692.5" y="1130" width="40" height="20" as="geometry" />
        </mxCell>
        <mxCell id="7tBXSwUCON_xTU5TAgxx-40" value="" style="rounded=0;whiteSpace=wrap;html=1;" vertex="1" parent="1">
          <mxGeometry x="752.5" y="1170" width="385" height="370" as="geometry" />
        </mxCell>
        <mxCell id="7tBXSwUCON_xTU5TAgxx-41" value="" style="rounded=0;whiteSpace=wrap;html=1;" vertex="1" parent="1">
          <mxGeometry x="1122.5" y="1170" width="15" height="370" as="geometry" />
        </mxCell>
        <mxCell id="7tBXSwUCON_xTU5TAgxx-53" value="" style="rounded=1;whiteSpace=wrap;html=1;" vertex="1" parent="1">
          <mxGeometry x="780" y="1193.5" width="80" height="105" as="geometry" />
        </mxCell>
        <mxCell id="7tBXSwUCON_xTU5TAgxx-54" value="" style="shape=actor;whiteSpace=wrap;html=1;" vertex="1" parent="1">
          <mxGeometry x="791.5" y="1207.5" width="58.5" height="91" as="geometry" />
        </mxCell>
        <mxCell id="7tBXSwUCON_xTU5TAgxx-59" value="" style="rounded=1;whiteSpace=wrap;html=1;" vertex="1" parent="1">
          <mxGeometry x="900" y="1193.5" width="80" height="105" as="geometry" />
        </mxCell>
        <mxCell id="7tBXSwUCON_xTU5TAgxx-60" value="" style="shape=actor;whiteSpace=wrap;html=1;" vertex="1" parent="1">
          <mxGeometry x="911.5" y="1207.5" width="58.5" height="91" as="geometry" />
        </mxCell>
        <mxCell id="7tBXSwUCON_xTU5TAgxx-61" value="" style="rounded=1;whiteSpace=wrap;html=1;" vertex="1" parent="1">
          <mxGeometry x="1020" y="1193.5" width="80" height="105" as="geometry" />
        </mxCell>
        <mxCell id="7tBXSwUCON_xTU5TAgxx-62" value="" style="shape=actor;whiteSpace=wrap;html=1;" vertex="1" parent="1">
          <mxGeometry x="1031.5" y="1207.5" width="58.5" height="91" as="geometry" />
        </mxCell>
        <mxCell id="7tBXSwUCON_xTU5TAgxx-63" value="" style="rounded=1;whiteSpace=wrap;html=1;" vertex="1" parent="1">
          <mxGeometry x="780" y="1307.5" width="80" height="105" as="geometry" />
        </mxCell>
        <mxCell id="7tBXSwUCON_xTU5TAgxx-64" value="" style="shape=actor;whiteSpace=wrap;html=1;" vertex="1" parent="1">
          <mxGeometry x="791.5" y="1321.5" width="58.5" height="91" as="geometry" />
        </mxCell>
        <mxCell id="7tBXSwUCON_xTU5TAgxx-65" value="" style="rounded=1;whiteSpace=wrap;html=1;" vertex="1" parent="1">
          <mxGeometry x="900" y="1307.5" width="80" height="105" as="geometry" />
        </mxCell>
        <mxCell id="7tBXSwUCON_xTU5TAgxx-66" value="" style="shape=actor;whiteSpace=wrap;html=1;" vertex="1" parent="1">
          <mxGeometry x="911.5" y="1321.5" width="58.5" height="91" as="geometry" />
        </mxCell>
        <mxCell id="7tBXSwUCON_xTU5TAgxx-67" value="" style="rounded=1;whiteSpace=wrap;html=1;" vertex="1" parent="1">
          <mxGeometry x="1020" y="1307.5" width="80" height="105" as="geometry" />
        </mxCell>
        <mxCell id="7tBXSwUCON_xTU5TAgxx-68" value="" style="shape=actor;whiteSpace=wrap;html=1;" vertex="1" parent="1">
          <mxGeometry x="1031.5" y="1321.5" width="58.5" height="91" as="geometry" />
        </mxCell>
        <mxCell id="7tBXSwUCON_xTU5TAgxx-69" value="" style="rounded=1;whiteSpace=wrap;html=1;" vertex="1" parent="1">
          <mxGeometry x="775" y="1440" width="335" height="80" as="geometry" />
        </mxCell>
        <mxCell id="7tBXSwUCON_xTU5TAgxx-70" value="Describe yourself" style="text;html=1;align=center;verticalAlign=middle;resizable=0;points=[];autosize=1;strokeColor=none;fillColor=none;" vertex="1" parent="1">
          <mxGeometry x="770" y="1440" width="120" height="30" as="geometry" />
        </mxCell>
        <mxCell id="7tBXSwUCON_xTU5TAgxx-71" value="" style="rounded=0;whiteSpace=wrap;html=1;" vertex="1" parent="1">
          <mxGeometry x="120" y="-440" width="520" height="440" as="geometry" />
        </mxCell>
        <mxCell id="7tBXSwUCON_xTU5TAgxx-72" value="&lt;font style=&quot;font-size: 20px;&quot;&gt;&lt;b&gt;Welcome page&lt;/b&gt;&lt;/font&gt;" style="text;html=1;align=center;verticalAlign=middle;resizable=0;points=[];autosize=1;strokeColor=none;fillColor=none;" vertex="1" parent="1">
          <mxGeometry x="300" y="-490" width="160" height="40" as="geometry" />
        </mxCell>
        <mxCell id="7tBXSwUCON_xTU5TAgxx-83" value="" style="shape=tape;whiteSpace=wrap;html=1;" vertex="1" parent="1">
          <mxGeometry x="120" y="-230" width="520" height="100" as="geometry" />
        </mxCell>
        <mxCell id="7tBXSwUCON_xTU5TAgxx-84" value="" style="shape=tape;whiteSpace=wrap;html=1;" vertex="1" parent="1">
          <mxGeometry x="120" y="-160" width="520" height="100" as="geometry" />
        </mxCell>
        <mxCell id="7tBXSwUCON_xTU5TAgxx-85" value="" style="shape=tape;whiteSpace=wrap;html=1;" vertex="1" parent="1">
          <mxGeometry x="120" y="-300" width="520" height="100" as="geometry" />
        </mxCell>
        <mxCell id="7tBXSwUCON_xTU5TAgxx-86" value="" style="rhombus;whiteSpace=wrap;html=1;" vertex="1" parent="1">
          <mxGeometry x="152" y="-320" width="208" height="190" as="geometry" />
        </mxCell>
        <mxCell id="7tBXSwUCON_xTU5TAgxx-87" value="" style="shape=xor;whiteSpace=wrap;html=1;" vertex="1" parent="1">
          <mxGeometry x="323" y="-315" width="102" height="180" as="geometry" />
        </mxCell>
        <mxCell id="7tBXSwUCON_xTU5TAgxx-82" value="&lt;font style=&quot;font-size: 18px;&quot;&gt;&lt;b&gt;Christian Crush&lt;/b&gt;&lt;/font&gt;" style="text;html=1;align=center;verticalAlign=middle;resizable=0;points=[];autosize=1;strokeColor=none;fillColor=none;" vertex="1" parent="1">
          <mxGeometry x="180" y="-250" width="160" height="40" as="geometry" />
        </mxCell>
        <mxCell id="7tBXSwUCON_xTU5TAgxx-89" value="&lt;span style=&quot;font-size: 20px;&quot;&gt;Login&lt;/span&gt;" style="text;html=1;align=center;verticalAlign=middle;resizable=0;points=[];autosize=1;strokeColor=none;fillColor=none;" vertex="1" parent="1">
          <mxGeometry x="565" y="-440" width="70" height="40" as="geometry" />
        </mxCell>
      </root>
    </mxGraphModel>
  </diagram>
</mxfile>
